<svg xmlns="http://www.w3.org/2000/svg" viewBox="0 0 144 128" data-skin="office-hero-v1" data-state="D007"><defs><linearGradient id="sweaterD007" x2="1" y2=".4"><stop stop-color="#858780"/><stop offset=".38" stop-color="#c0c0b8"/><stop offset=".7" stop-color="#b0b1a9"/><stop offset="1" stop-color="#8c8f85"/></linearGradient><linearGradient id="trousersD007"><stop stop-color="#303330"/><stop offset=".45" stop-color="#51514a"/><stop offset="1" stop-color="#30332f"/></linearGradient><radialGradient id="faceD007" cx=".35" cy=".35"><stop stop-color="#ffe5b7"/><stop offset="1" stop-color="#e6c494"/></radialGradient><linearGradient id="hairD007" x2=".6" y2="1"><stop stop-color="#4f514d"/><stop offset=".55" stop-color="#303330"/><stop offset="1" stop-color="#1c211e"/></linearGradient><linearGradient id="shoeD007" x2="0" y2="1"><stop stop-color="#56574f"/><stop offset="1" stop-color="#20251f"/></linearGradient><g id="bodyD007"><g data-part="rfoot" data-module="leg"><path d="M -4.0000 -24.0000 L -4.5000 -10.8536" fill="none" stroke="#282926" stroke-width="8.3" stroke-linecap="round"/><path d="M -4.5000 -10.8536 L -5.0000 -2.0000" fill="none" stroke="#282926" stroke-width="8.3" stroke-linecap="round"/><path d="M -4.0000 -24.0000 L -4.5000 -10.8536" fill="none" stroke="url(#trousersD007)" stroke-width="7.3" stroke-linecap="round"/><path d="M -4.5000 -10.8536 L -5.0000 -2.0000" fill="none" stroke="url(#trousersD007)" stroke-width="7.3" stroke-linecap="round"/><path d="M -4.0900 -21.6337 L -4.3750 -14.1402" fill="none" stroke="#656462" stroke-width="0.65" stroke-linecap="round"/></g><g data-part="lfoot" data-module="leg"><path d="M 4.0000 -24.0000 L 4.5000 -10.8536" fill="none" stroke="#282926" stroke-width="8.3" stroke-linecap="round"/><path d="M 4.5000 -10.8536 L 5.0000 -2.0000" fill="none" stroke="#282926" stroke-width="8.3" stroke-linecap="round"/><path d="M 4.0000 -24.0000 L 4.5000 -10.8536" fill="none" stroke="url(#trousersD007)" stroke-width="7.3" stroke-linecap="round"/><path d="M 4.5000 -10.8536 L 5.0000 -2.0000" fill="none" stroke="url(#trousersD007)" stroke-width="7.3" stroke-linecap="round"/><path d="M 4.0900 -21.6337 L 4.3750 -14.1402" fill="none" stroke="#656462" stroke-width="0.65" stroke-linecap="round"/></g><g data-part="rfoot"><ellipse cx="-5" cy="-2.2" rx="4.6" ry="2.2" fill="url(#shoeD007)" stroke="#282926" stroke-width=".7"/><ellipse cx="-5.8" cy="-2.9" rx="2.2" ry=".65" fill="#6b6b64" opacity=".45"/></g><g data-part="lfoot"><ellipse cx="5" cy="-2.2" rx="4.6" ry="2.2" fill="url(#shoeD007)" stroke="#282926" stroke-width=".7"/><ellipse cx="4.2" cy="-2.9" rx="2.2" ry=".65" fill="#6b6b64" opacity=".45"/></g><g data-part="chest abdomen"><path d="M -7.5000 -20.3194 Q -7.8000 -33.2014 -8.7000 -40.8369 Q -6.0000 -43.2481 0.0000 -43.2481 Q 6.0000 -43.2481 8.7000 -40.8369 Q 7.8000 -33.2014 7.5000 -20.3194 Q 0.0000 -19.3993 -7.5000 -20.3194 Z" fill="url(#sweaterD007)" stroke="#282926" stroke-width="0.7" stroke-linejoin="round" stroke-linecap="round"/><path d="M -7.2000 -21.5156 L 7.2000 -21.5156" fill="none" stroke="#b9d5ea" stroke-width="2.5" stroke-linecap="round"/><path d="M -7.1000 -23.0799 L 7.1000 -23.0799" fill="none" stroke="#888981" stroke-width="1.2" stroke-linecap="round"/><path d="M -6.4000 -35.7131 L -6.7000 -38.7271" fill="none" stroke="#cecdc5" stroke-width="0.6" stroke-linecap="round"/><path d="M -5.0000 -43.2481 L -0.4000 -40.5481 L -3.0000 -37.6481 L -6.4000 -41.3481 Z" fill="#c5def0" stroke="#282926" stroke-width="0.7" stroke-linejoin="round" stroke-linecap="round"/><path d="M 5.0000 -43.2481 L 0.4000 -40.5481 L 3.0000 -37.6481 L 6.4000 -41.3481 Z" fill="#c5def0" stroke="#282926" stroke-width="0.7" stroke-linejoin="round" stroke-linecap="round"/></g><g data-part="rhand" data-module="arm"><path d="M -8.0000 -40.7365 L -13.4000 -32.5221" fill="none" stroke="#282926" stroke-width="7.6" stroke-linecap="round"/><path d="M -13.4000 -32.5221 L -2.0000 -35.5248" fill="none" stroke="#282926" stroke-width="7.6" stroke-linecap="round"/><path d="M -8.0000 -40.7365 L -13.4000 -32.5221" fill="none" stroke="url(#sweaterD007)" stroke-width="6.6" stroke-linecap="round"/><path d="M -13.4000 -32.5221 L -2.0000 -35.5248" fill="none" stroke="url(#sweaterD007)" stroke-width="6.6" stroke-linecap="round"/><path d="M -8.9720 -39.2579 L -12.0500 -34.5757" fill="none" stroke="#d2d0c8" stroke-width="0.65" stroke-linecap="round"/><path d="M -2.2874 -32.4502 L -3.7647 -38.0589" fill="none" stroke="#b9d5ea" stroke-width="2" stroke-linecap="round"/><path d="M -3.1994 -32.2100 L -4.6767 -37.8187" fill="none" stroke="#767970" stroke-width="0.7" stroke-linecap="round"/></g><g data-part="lhand" data-module="arm"><path d="M 8.0000 -40.7365 L 13.6425 -28.1539" fill="none" stroke="#282926" stroke-width="7.6" stroke-linecap="round"/><path d="M 13.6425 -28.1539 L 2.0000 -25.9007" fill="none" stroke="#282926" stroke-width="7.6" stroke-linecap="round"/><path d="M 8.0000 -40.7365 L 13.6425 -28.1539" fill="none" stroke="url(#sweaterD007)" stroke-width="6.6" stroke-linecap="round"/><path d="M 13.6425 -28.1539 L 2.0000 -25.9007" fill="none" stroke="url(#sweaterD007)" stroke-width="6.6" stroke-linecap="round"/><path d="M 9.0157 -38.4716 L 12.2319 -31.2995" fill="none" stroke="#d2d0c8" stroke-width="0.65" stroke-linecap="round"/><path d="M 2.4968 -28.9507 L 3.5988 -23.2563" fill="none" stroke="#b9d5ea" stroke-width="2" stroke-linecap="round"/><path d="M 3.4282 -29.1309 L 4.5302 -23.4366" fill="none" stroke="#767970" stroke-width="0.7" stroke-linecap="round"/></g><g data-part="rhand"><ellipse cx="-2" cy="-35.52477610050265" rx="2.8" ry="2" fill="url(#faceD007)" stroke="#282926" stroke-width=".7"/></g><g data-part="lhand"><ellipse cx="2" cy="-25.900713392789314" rx="2.8" ry="2" fill="url(#faceD007)" stroke="#282926" stroke-width=".7"/></g><g data-part="head" transform="translate(0.0000 -48.7344) rotate(0)"><ellipse rx="8.8" ry="8.2" fill="url(#faceD007)" stroke="#282926" stroke-width=".9"/><path d="M -8.4 1.6 C -11 -1.8 -9.1 -5.2 -6.9 -6.2 C -6.1 -9.7 -1.4 -10.2 1.7 -9 C 6.1 -9.5 10 -5.7 8.8 -1.3 L 7.1 3 L 6 .3 L 5.8 -2.6 C 3.1 -.2 .6 -1.4 -.6 -2.7 C -3.2 -.2 -5.6 -.5 -7 -1 Z" fill="url(#hairD007)" stroke="#282926" stroke-width="0.7" stroke-linejoin="round" stroke-linecap="round"/><path d="M -7 -4.6 Q -3.2 -8.4 1.3 -7.5 M -5 -2.6 Q -1.4 -6.5 3.4 -5.9" fill="none" stroke="#555754" stroke-width="1.3" stroke-linejoin="round" stroke-linecap="round"/></g><g data-injury="head" opacity=".8"><path d="M -2.0000 -48.7760 l 3.8 1.1 m -3.2 1 l 3.2 -1.8" fill="none" stroke="#9a5751" stroke-width="1.2" stroke-linejoin="round" stroke-linecap="round"/></g><g data-injury="chest" opacity=".8"><path d="M -2.0000 -38.9248 l 3.8 1.1 m -3.2 1 l 3.2 -1.8" fill="none" stroke="#9a5751" stroke-width="1.2" stroke-linejoin="round" stroke-linecap="round"/></g><g data-injury="abdomen" opacity=".8"><path d="M -2.0000 -29.3007 l 3.8 1.1 m -3.2 1 l 3.2 -1.8" fill="none" stroke="#9a5751" stroke-width="1.2" stroke-linejoin="round" stroke-linecap="round"/></g></g><filter id="shadowD007"><feColorMatrix type="matrix" values="0 0 0 0 0 0 0 0 0 0 0 0 0 0 0 0 0 0 .20 0"/></filter></defs><g transform="translate(72 78) scale(1.1076923076923078)"><use href="#bodyD007" transform="matrix(1 0 -.48 -.24 0 0)" filter="url(#shadowD007)"/><ellipse cy="2" rx="17.604166666666664" ry="5" fill="#282d27"/><ellipse rx="17.604166666666664" ry="4" fill="#75796c" stroke="#282926" stroke-width=".7"/><use href="#bodyD007"/></g></svg>