<svg xmlns="http://www.w3.org/2000/svg" viewBox="0 0 144 128" data-skin="office-hero-v1" data-state="D105"><defs><linearGradient id="sweaterD105" x2="1" y2=".4"><stop stop-color="#858780"/><stop offset=".38" stop-color="#c0c0b8"/><stop offset=".7" stop-color="#b0b1a9"/><stop offset="1" stop-color="#8c8f85"/></linearGradient><linearGradient id="trousersD105"><stop stop-color="#303330"/><stop offset=".45" stop-color="#51514a"/><stop offset="1" stop-color="#30332f"/></linearGradient><radialGradient id="faceD105" cx=".35" cy=".35"><stop stop-color="#ffe5b7"/><stop offset="1" stop-color="#e6c494"/></radialGradient><linearGradient id="hairD105" x2=".6" y2="1"><stop stop-color="#4f514d"/><stop offset=".55" stop-color="#303330"/><stop offset="1" stop-color="#1c211e"/></linearGradient><linearGradient id="shoeD105" x2="0" y2="1"><stop stop-color="#56574f"/><stop offset="1" stop-color="#20251f"/></linearGradient><g id="bodyD105"><g data-part="rhand" data-module="arm"><path d="M -10.5664 -22.7017 L -19.3336 -12.1761" fill="none" stroke="#282926" stroke-width="7.6" stroke-linecap="round"/><path d="M -19.3336 -12.1761 L -15.0000 -1.5500" fill="none" stroke="#282926" stroke-width="7.6" stroke-linecap="round"/><path d="M -10.5664 -22.7017 L -19.3336 -12.1761" fill="none" stroke="url(#sweaterD105)" stroke-width="6.6" stroke-linecap="round"/><path d="M -19.3336 -12.1761 L -15.0000 -1.5500" fill="none" stroke="url(#sweaterD105)" stroke-width="6.6" stroke-linecap="round"/><path d="M -12.1445 -20.8071 L -17.1418 -14.8075" fill="none" stroke="#d2d0c8" stroke-width="0.65" stroke-linecap="round"/><path d="M -18.0753 -1.4112 L -12.7047 -3.6015" fill="none" stroke="#b9d5ea" stroke-width="2" stroke-linecap="round"/><path d="M -18.4220 -2.2613 L -13.0514 -4.4516" fill="none" stroke="#767970" stroke-width="0.7" stroke-linecap="round"/></g><g data-part="chest abdomen"><path d="M -6.8703 0.0049 Q -9.1158 -13.8171 -11.2763 -22.7231 Q -9.0034 -25.9509 -3.0618 -26.7859 Q 2.8798 -27.6209 5.9543 -25.1447 Q 6.3324 -15.9882 7.9837 -2.0827 Q 0.6959 -0.0487 -6.8703 0.0049 Z" fill="url(#sweaterD105)" stroke="#282926" stroke-width="0.7" stroke-linejoin="round" stroke-linecap="round"/><path d="M -6.7542 -1.3242 L 7.5057 -3.3283" fill="none" stroke="#b9d5ea" stroke-width="2.5" stroke-linecap="round"/><path d="M -6.8917 -3.0216 L 7.1701 -4.9979" fill="none" stroke="#888981" stroke-width="1.2" stroke-linecap="round"/><path d="M -8.1470 -16.9828 L -8.9451 -20.5060" fill="none" stroke="#cecdc5" stroke-width="0.6" stroke-linecap="round"/><path d="M -8.0131 -26.0900 L -3.0821 -24.0565 L -5.2532 -20.8229 L -9.1351 -24.0137 Z" fill="#c5def0" stroke="#282926" stroke-width="0.7" stroke-linejoin="round" stroke-linecap="round"/><path d="M 1.8895 -27.4818 L -2.2899 -24.1678 L 0.6884 -21.6579 L 3.5403 -25.7951 Z" fill="#c5def0" stroke="#282926" stroke-width="0.7" stroke-linejoin="round" stroke-linecap="round"/></g><g data-part="rhand"><ellipse cx="-15" cy="-1.55" rx="2.8" ry="2" fill="url(#faceD105)" stroke="#282926" stroke-width=".7"/></g><g data-part="head" transform="translate(-4.2953 -34.8596) rotate(-8.68663891010435)"><ellipse rx="8.8" ry="8.2" fill="url(#faceD105)" stroke="#282926" stroke-width=".9"/><path d="M -8.4 1.6 C -11 -1.8 -9.1 -5.2 -6.9 -6.2 C -6.1 -9.7 -1.4 -10.2 1.7 -9 C 6.1 -9.5 10 -5.7 8.8 -1.3 L 7.1 3 L 6 .3 L 5.8 -2.6 C 3.1 -.2 .6 -1.4 -.6 -2.7 C -3.2 -.2 -5.6 -.5 -7 -1 Z" fill="url(#hairD105)" stroke="#282926" stroke-width="0.7" stroke-linejoin="round" stroke-linecap="round"/><path d="M -7 -4.6 Q -3.2 -8.4 1.3 -7.5 M -5 -2.6 Q -1.4 -6.5 3.4 -5.9" fill="none" stroke="#555754" stroke-width="1.3" stroke-linejoin="round" stroke-linecap="round"/></g><g data-injury="head" opacity=".8"><path d="M -6.1473 -34.5908 l 3.8 1.1 m -3.2 1 l 3.2 -1.8" fill="none" stroke="#9a5751" stroke-width="1.2" stroke-linejoin="round" stroke-linecap="round"/></g></g><filter id="shadowD105"><feColorMatrix type="matrix" values="0 0 0 0 0 0 0 0 0 0 0 0 0 0 0 0 0 0 .20 0"/></filter></defs><g transform="translate(72 78) scale(1.1076923076923078)"><use href="#bodyD105" transform="matrix(1 0 -.48 -.24 0 0)" filter="url(#shadowD105)"/><ellipse cy="2" rx="17.604166666666664" ry="5" fill="#282d27"/><ellipse rx="17.604166666666664" ry="4" fill="#75796c" stroke="#282926" stroke-width=".7"/><use href="#bodyD105"/></g></svg>