<svg viewBox="0 0 144 128" xmlns="http://www.w3.org/2000/svg" aria-label="D010"><g transform="translate(72 78) scale(1.1076923076923078)"><defs><g id="bD010"><line x1="-4" y1="-24" x2="-4.5" y2="-10.853636796811873" stroke="#242921" stroke-width="6.5" stroke-linecap="round"/><line x1="-4" y1="-24" x2="-4.5" y2="-10.853636796811873" stroke="#343c43" stroke-width="5.5" stroke-linecap="round"/><line x1="4" y1="-24" x2="4.5" y2="-10.853636796811873" stroke="#242921" stroke-width="6.5" stroke-linecap="round"/><line x1="4" y1="-24" x2="4.5" y2="-10.853636796811873" stroke="#343c43" stroke-width="5.5" stroke-linecap="round"/><line x1="-4.5" y1="-10.853636796811871" x2="-5" y2="-2.0000000000000013" stroke="#242921" stroke-width="6.5" stroke-linecap="round"/><line x1="-4.5" y1="-10.853636796811871" x2="-5" y2="-2.0000000000000013" stroke="#343c43" stroke-width="5.5" stroke-linecap="round"/><line x1="4.5" y1="-10.853636796811871" x2="5" y2="-2.0000000000000013" stroke="#242921" stroke-width="6.5" stroke-linecap="round"/><line x1="4.5" y1="-10.853636796811871" x2="5" y2="-2.0000000000000013" stroke="#343c43" stroke-width="5.5" stroke-linecap="round"/><line x1="-8.000000000000004" y1="-42.15999465755881" x2="-13.599936063695079" y2="-34.075182206513745" stroke="#242921" stroke-width="5.5" stroke-linecap="round"/><line x1="-8.000000000000004" y1="-42.15999465755881" x2="-13.599936063695079" y2="-34.075182206513745" stroke="#969994" stroke-width="4.5" stroke-linecap="round"/><line x1="-13.599936063695079" y1="-34.075182206513745" x2="-2" y2="-36.739996438372536" stroke="#242921" stroke-width="5.5" stroke-linecap="round"/><line x1="-13.599936063695079" y1="-34.075182206513745" x2="-2" y2="-36.739996438372536" stroke="#969994" stroke-width="4.5" stroke-linecap="round"/><line x1="0" y1="-24" x2="0" y2="-34" stroke="#242921" stroke-width="11" stroke-linecap="round"/><line x1="0" y1="-24" x2="0" y2="-34" stroke="#969994" stroke-width="10" stroke-linecap="round"/><line x1="0" y1="-34" x2="0" y2="-44.87999287674508" stroke="#242921" stroke-width="15" stroke-linecap="round"/><line x1="0" y1="-34" x2="0" y2="-44.87999287674508" stroke="#969994" stroke-width="14" stroke-linecap="round"/><ellipse cx="-2" cy="-36.739996438372536" rx="2" ry="2" fill="#efd2a4" stroke="#222b25" stroke-width=".6"/><ellipse cx="-5" cy="-2" rx="3.2" ry="2" fill="#343c43" stroke="#222b25" stroke-width=".6"/><ellipse cx="5" cy="-2" rx="3.2" ry="2" fill="#343c43" stroke="#222b25" stroke-width=".6"/><g transform="translate(0 -53.039987534303876) rotate(0)"><circle r="8" fill="#efd2a4" stroke="#252a25" stroke-width=".7"/><path d="M -8 0 Q -10 -9 0 -8 Q 9 -10 8 0 L 4 -3 L 0 -1 L -3 -3 Z" fill="#24292c"/></g><path d="M -2 -40.98399608220979 l 4 2 m -3 1 l 2 -3" stroke="#a74f48" stroke-width="1.1"/></g><filter id="sD010"><feColorMatrix type="matrix" values="0 0 0 0 0 0 0 0 0 0 0 0 0 0 0 0 0 0 .20 0"/></filter></defs><use href="#bD010" transform="matrix(1 0 -.48 -.24 0 0)" filter="url(#sD010)"/><ellipse cy="2" rx="17.604166666666664" ry="5" fill="#252d2b"/><ellipse rx="17.604166666666664" ry="4" fill="#717a70" stroke="#252d2b" stroke-width=".7"/><use href="#bD010"/></g></svg>