<svg viewBox="0 0 144 128" xmlns="http://www.w3.org/2000/svg" aria-label="D113"><g transform="translate(72 78) scale(1.1076923076923078)"><defs><g id="bD113"><line x1="10.566433468173805" y1="-22.701708498409314" x2="19.33355685141032" y2="-12.176122219785041" stroke="#242921" stroke-width="5.5" stroke-linecap="round"/><line x1="10.566433468173805" y1="-22.701708498409314" x2="19.33355685141032" y2="-12.176122219785041" stroke="#969994" stroke-width="4.5" stroke-linecap="round"/><line x1="19.33355685141032" y1="-12.176122219785041" x2="15" y2="-1.5500000000000016" stroke="#242921" stroke-width="5.5" stroke-linecap="round"/><line x1="19.33355685141032" y1="-12.176122219785041" x2="15" y2="-1.5500000000000016" stroke="#969994" stroke-width="4.5" stroke-linecap="round"/><line x1="0" y1="-5" x2="1.3917310096006543" y2="-14.902680687415703" stroke="#242921" stroke-width="11" stroke-linecap="round"/><line x1="0" y1="-5" x2="1.3917310096006543" y2="-14.902680687415703" stroke="#969994" stroke-width="10" stroke-linecap="round"/><line x1="1.3917310096006543" y1="-14.902680687415703" x2="3.0618082211214395" y2="-26.78589751231455" stroke="#242921" stroke-width="15" stroke-linecap="round"/><line x1="1.3917310096006543" y1="-14.902680687415703" x2="3.0618082211214395" y2="-26.78589751231455" stroke="#969994" stroke-width="14" stroke-linecap="round"/><ellipse cx="15" cy="-1.55" rx="2" ry="2" fill="#efd2a4" stroke="#222b25" stroke-width=".6"/><g transform="translate(4.2953369606474485 -34.8596354376776) rotate(8.686638910104335)"><circle r="8" fill="#efd2a4" stroke="#252a25" stroke-width=".7"/><path d="M -8 0 Q -10 -9 0 -8 Q 9 -10 8 0 L 4 -3 L 0 -1 L -3 -3 Z" fill="#24292c"/></g><path d="M 2.2953369606474485 -35.8596354376776 l 4 2 m -3 1 l 2 -3" stroke="#a74f48" stroke-width="1.1"/></g><filter id="sD113"><feColorMatrix type="matrix" values="0 0 0 0 0 0 0 0 0 0 0 0 0 0 0 0 0 0 .20 0"/></filter></defs><use href="#bD113" transform="matrix(1 0 -.48 -.24 0 0)" filter="url(#sD113)"/><ellipse cy="2" rx="17.604166666666664" ry="5" fill="#252d2b"/><ellipse rx="17.604166666666664" ry="4" fill="#717a70" stroke="#252d2b" stroke-width=".7"/><use href="#bD113"/></g></svg>