<svg viewBox="0 0 144 128" xmlns="http://www.w3.org/2000/svg" aria-label="D119"><g transform="translate(72 78) scale(1.1076923076923078)"><defs><g id="bD119"><line x1="10.561288159677467" y1="-22.19209342966346" x2="19.368497941004357" y2="-11.723654466322852" stroke="#242921" stroke-width="5.5" stroke-linecap="round"/><line x1="10.561288159677467" y1="-22.19209342966346" x2="19.368497941004357" y2="-11.723654466322852" stroke="#969994" stroke-width="4.5" stroke-linecap="round"/><line x1="19.368497941004357" y1="-11.723654466322852" x2="15" y2="-1.5499999999999985" stroke="#242921" stroke-width="5.5" stroke-linecap="round"/><line x1="19.368497941004357" y1="-11.723654466322852" x2="15" y2="-1.5499999999999985" stroke="#969994" stroke-width="4.5" stroke-linecap="round"/><line x1="0" y1="-5" x2="1.3907577787698036" y2="-14.727495415985512" stroke="#242921" stroke-width="11" stroke-linecap="round"/><line x1="0" y1="-5" x2="1.3907577787698036" y2="-14.727495415985512" stroke="#969994" stroke-width="10" stroke-linecap="round"/><line x1="1.3907577787698033" y1="-14.72749541598551" x2="3.0544798422906565" y2="-26.094852002387007" stroke="#242921" stroke-width="15" stroke-linecap="round"/><line x1="1.3907577787698033" y1="-14.72749541598551" x2="3.0544798422906565" y2="-26.094852002387007" stroke="#969994" stroke-width="14" stroke-linecap="round"/><ellipse cx="15" cy="-1.55" rx="2" ry="2" fill="#efd2a4" stroke="#222b25" stroke-width=".6"/><g transform="translate(4.264357875169225 -33.65536439264373) rotate(9.091725557409205)"><circle r="8" fill="#efd2a4" stroke="#252a25" stroke-width=".7"/><path d="M -8 0 Q -10 -9 0 -8 Q 9 -10 8 0 L 4 -3 L 0 -1 L -3 -3 Z" fill="#24292c"/></g><path d="M 2.2643578751692246 -34.65536439264373 l 4 2 m -3 1 l 2 -3" stroke="#a74f48" stroke-width="1.1"/><path d="M 0.3058049137062726 -21.979541538506332 l 4 2 m -3 1 l 2 -3" stroke="#a74f48" stroke-width="1.1"/><path d="M -1.2350832216766081 -11.350122478792033 l 4 2 m -3 1 l 2 -3" stroke="#a74f48" stroke-width="1.1"/></g><filter id="sD119"><feColorMatrix type="matrix" values="0 0 0 0 0 0 0 0 0 0 0 0 0 0 0 0 0 0 .20 0"/></filter></defs><use href="#bD119" transform="matrix(1 0 -.48 -.24 0 0)" filter="url(#sD119)"/><ellipse cy="2" rx="17.604166666666664" ry="5" fill="#252d2b"/><ellipse rx="17.604166666666664" ry="4" fill="#717a70" stroke="#252d2b" stroke-width=".7"/><use href="#bD119"/></g></svg>